<svg width="200" height="200" viewBox="0 0 200 200" fill="none" xmlns="http://www.w3.org/2000/svg">
<path d="M87.6725 6.98723C95.3194 2.65298 104.681 2.65298 112.328 6.98723L143.5 24.6558L174.388 42.8177C181.965 47.2729 186.645 55.38 186.715 64.1695L187 100L186.715 135.83C186.645 144.62 181.965 152.727 174.388 157.182L143.5 175.344L112.328 193.013C104.681 197.347 95.3194 197.347 87.6725 193.013L56.5 175.344L25.6123 157.182C18.0353 152.727 13.3547 144.62 13.2848 135.83L13 100L13.2848 64.1695C13.3547 55.38 18.0353 47.2729 25.6123 42.8177L56.5 24.6558L87.6725 6.98723Z" fill="#F73859"/>
<path d="M81.1286 86.8885L71.6843 77.4442L81.1286 68L90.5728 77.4442L81.1286 86.8885Z" fill="white"/>
<path d="M99.8422 86.8885L90.3979 77.4442L99.8422 68L109.286 77.4442L99.8422 86.8885Z" fill="white"/>
<path d="M118.556 86.8885L109.112 77.4442L118.556 68L128 77.4442L118.556 86.8885Z" fill="white"/>
<path d="M81.1286 105.602L71.6843 96.1578L81.1286 86.7136L90.5728 96.1578L81.1286 105.602Z" fill="white"/>
<path d="M99.8422 105.602L90.3979 96.1578L99.8422 86.7136L109.286 96.1578L99.8422 105.602Z" fill="white"/>
<path d="M118.556 105.602L109.112 96.1578L118.556 86.7136L128 96.1578L118.556 105.602Z" fill="white"/>
<path d="M99.8422 143L90.3979 133.556L99.8422 124.112L109.286 133.556L99.8422 143Z" fill="white"/>
<path d="M137.24 105.602L127.796 96.1578L137.24 86.7136L146.684 96.1578L137.24 105.602Z" fill="white"/>
<path d="M62.4442 105.602L53 96.1578L62.4442 86.7136L71.8885 96.1578L62.4442 105.602Z" fill="white"/>
<path d="M81.1286 124.316L71.6843 114.871L81.1286 105.427L90.5728 114.871L81.1286 124.316Z" fill="white"/>
<path d="M99.8422 124.316L90.3979 114.871L99.8422 105.427L109.286 114.871L99.8422 124.316Z" fill="white"/>
<path d="M118.556 124.316L109.112 114.871L118.556 105.427L128 114.871L118.556 124.316Z" fill="white"/>
</svg>
